<svg width="25" height="24" viewBox="0 0 25 24" fill="none" xmlns="http://www.w3.org/2000/svg">
<rect width="24" height="24" transform="translate(0.833496)" fill="white"/>
<path fill-rule="evenodd" clip-rule="evenodd" d="M6.18975 3.00537C5.527 3.00537 4.98975 3.54263 4.98975 4.20537V17.8051C4.98975 18.4679 5.527 19.0051 6.18975 19.0051H13.3911C13.3911 19.0047 13.3911 19.0043 13.3911 19.0038C13.3911 16.0589 15.8973 13.6715 18.9891 13.6706V4.20537C18.9891 3.54263 18.4519 3.00537 17.7891 3.00537H6.18975ZM8.8335 7.24951C8.41928 7.24951 8.0835 7.5853 8.0835 7.99951C8.0835 8.41373 8.41928 8.74951 8.8335 8.74951H13.8335C14.2477 8.74951 14.5835 8.41373 14.5835 7.99951C14.5835 7.5853 14.2477 7.24951 13.8335 7.24951H8.8335ZM8.0835 11.2964C8.0835 10.8822 8.41928 10.5464 8.8335 10.5464H11.8335C12.2477 10.5464 12.5835 10.8822 12.5835 11.2964C12.5835 11.7106 12.2477 12.0464 11.8335 12.0464H8.8335C8.41928 12.0464 8.0835 11.7106 8.0835 11.2964Z" fill="#191919"/>
<path d="M21.2743 22.7742C21.6722 23.1572 22.3173 23.1572 22.7152 22.7742C23.113 22.3911 23.113 21.7701 22.7152 21.3871L21.2743 22.7742ZM19.1131 20.6935L21.2743 22.7742L22.7152 21.3871L20.5539 19.3065L19.1131 20.6935Z" fill="#191919"/>
<circle cx="17.1831" cy="17.541" r="4" stroke="#191919" stroke-width="2"/>
</svg>
