<svg width="16" height="16" viewBox="0 0 16 16" fill="none" xmlns="http://www.w3.org/2000/svg">
<path fill-rule="evenodd" clip-rule="evenodd" d="M6.92308 3H9.07692V4.5C9.07692 5.32843 9.80016 6 10.6923 6C11.5845 6 12.3077 5.32843 12.3077 4.5V3H13C14.1046 3 15 3.89543 15 5L15 7H1V5C1 3.89543 1.89543 3 3 3H3.69231V4.5C3.69231 5.32843 4.41554 6 5.30769 6C6.19984 6 6.92308 5.32843 6.92308 4.5V3ZM1 8V12C1 13.1046 1.89543 14 3 14H13C14.1046 14 15 13.1046 15 12L15 8H1ZM11.2308 3H10.1538V4.5C10.1538 4.77614 10.3949 5 10.6923 5C10.9897 5 11.2308 4.77614 11.2308 4.5V3ZM4.76923 3H5.84615L5.84615 4.5C5.84615 4.77614 5.60508 5 5.30769 5C5.01031 5 4.76923 4.77614 4.76923 4.5L4.76923 3Z" fill="#BFBFBF"/>
<path fill-rule="evenodd" clip-rule="evenodd" d="M5.30773 2C5.60511 2 5.84619 2.22386 5.84619 2.5L5.84619 4.5C5.84619 4.77614 5.60511 5 5.30773 5C5.01035 5 4.76927 4.77614 4.76927 4.5L4.76927 2.5C4.76927 2.22386 5.01035 2 5.30773 2Z" fill="#BFBFBF"/>
<path fill-rule="evenodd" clip-rule="evenodd" d="M10.6923 2C10.9896 2 11.2307 2.22386 11.2307 2.5L11.2307 4.5C11.2307 4.77614 10.9896 5 10.6923 5C10.3949 5 10.1538 4.77614 10.1538 4.5L10.1538 2.5C10.1538 2.22386 10.3949 2 10.6923 2Z" fill="#BFBFBF"/>
</svg>
