<svg width="16" height="17" viewBox="0 0 16 17" fill="none" xmlns="http://www.w3.org/2000/svg">
<rect width="16" height="17" fill="#373737"/>
<path d="M-228 -825C-228 -826.105 -227.105 -827 -226 -827H776C777.105 -827 778 -826.105 778 -825V1901C778 1902.1 777.105 1903 776 1903H-226C-227.105 1903 -228 1902.1 -228 1901V-825Z" fill="#404040"/>
<path d="M-226 -826H776V-828H-226V-826ZM777 -825V1901H779V-825H777ZM776 1902H-226V1904H776V1902ZM-227 1901V-825H-229V1901H-227ZM-226 1902C-226.552 1902 -227 1901.55 -227 1901H-229C-229 1902.66 -227.657 1904 -226 1904V1902ZM777 1901C777 1901.55 776.552 1902 776 1902V1904C777.657 1904 779 1902.66 779 1901H777ZM776 -826C776.552 -826 777 -825.552 777 -825H779C779 -826.657 777.657 -828 776 -828V-826ZM-226 -828C-227.657 -828 -229 -826.657 -229 -825H-227C-227 -825.552 -226.552 -826 -226 -826V-828Z" fill="white" fill-opacity="0.1"/>
<g clip-path="url(#clip0_1347_6106)">
<rect x="-100" y="-700" width="375" height="2447" rx="24" fill="white"/>
<rect y="0.5" width="16" height="16" rx="8" fill="#EAEAEA" style="mix-blend-mode:multiply"/>
<path d="M10.3334 6.16706L10.3334 10.1667M10.3334 6.16706L6.33377 6.16706M10.3334 6.16706L5.66716 10.8333" stroke="#656565" stroke-linecap="round" stroke-linejoin="round"/>
</g>
<defs>
<clipPath id="clip0_1347_6106">
<rect x="-100" y="-700" width="375" height="2447" rx="24" fill="white"/>
</clipPath>
</defs>
</svg>
