<svg width="25" height="24" viewBox="0 0 25 24" fill="none" xmlns="http://www.w3.org/2000/svg">
<rect width="24" height="24" transform="translate(0.833496)" fill="white"/>
<path d="M8.8335 7.99951H13.8335" stroke="#1A1A1A" stroke-width="2" stroke-linecap="round"/>
<path d="M8.8335 11.2964H11.8335" stroke="#1A1A1A" stroke-width="2" stroke-linecap="round"/>
<path fill-rule="evenodd" clip-rule="evenodd" d="M6.18975 2.00537C4.97472 2.00537 3.98975 2.99034 3.98975 4.20537V17.8051C3.98975 19.0201 4.97472 20.0051 6.18975 20.0051H13.4896C13.425 19.6808 13.3911 19.3461 13.3911 19.0038C13.3911 18.6625 13.4248 18.3286 13.4891 18.0051H6.18975C6.07929 18.0051 5.98975 17.9156 5.98975 17.8051V4.20537C5.98975 4.09491 6.07929 4.00537 6.18975 4.00537H17.7891C17.8996 4.00537 17.9891 4.09491 17.9891 4.20537V13.7557C18.3142 13.6998 18.6489 13.6706 18.9909 13.6706C19.3316 13.6706 19.6652 13.6996 19.9891 13.7551V4.20537C19.9891 2.99034 19.0042 2.00537 17.7891 2.00537H6.18975Z" fill="#1A1A1A"/>
<path d="M21.2743 22.7742C21.6722 23.1572 22.3173 23.1572 22.7152 22.7742C23.113 22.3911 23.113 21.7701 22.7152 21.3871L21.2743 22.7742ZM19.1131 20.6935L21.2743 22.7742L22.7152 21.3871L20.5539 19.3065L19.1131 20.6935Z" fill="#1A1A1A"/>
<circle cx="17.1831" cy="17.541" r="4" stroke="#1A1A1A" stroke-width="2"/>
</svg>
