<svg width="24" height="24" viewBox="0 0 24 24" fill="none" xmlns="http://www.w3.org/2000/svg">
<path d="M13.8044 2.60094C12.7422 1.79969 11.2578 1.79969 10.1956 2.60094L4.14206 7.16725C3.28764 7.81176 2.8642 8.86005 3.03875 9.89864L4.66828 19.5944C4.90142 20.9816 6.13242 22 7.57601 22H8.0356C9.14017 22 10.0356 21.1046 10.0356 20V14.6721C10.0356 14.1198 10.4833 13.6721 11.0356 13.6721H12.9641C13.5164 13.6721 13.9641 14.1198 13.9641 14.6721V20C13.9641 21.1046 14.8596 22 15.9641 22H16.424C17.8676 22 19.0986 20.9816 19.3317 19.5944L20.9613 9.89864C21.1358 8.86005 20.7124 7.81176 19.8579 7.16725L13.8044 2.60094Z" fill="#191919"/>
</svg>
