<svg width="25" height="24" viewBox="0 0 25 24" fill="none" xmlns="http://www.w3.org/2000/svg">
<path d="M14.3044 2.60094C13.2422 1.79969 11.7578 1.79969 10.6956 2.60094L4.64206 7.16725C3.78764 7.81176 3.3642 8.86005 3.53875 9.89864L5.16828 19.5944C5.40142 20.9816 6.63242 22 8.07601 22H8.5356C9.64017 22 10.5356 21.1046 10.5356 20V14.6721C10.5356 14.1198 10.9833 13.6721 11.5356 13.6721H13.4641C14.0164 13.6721 14.4641 14.1198 14.4641 14.6721V20C14.4641 21.1046 15.3596 22 16.4641 22H16.924C18.3676 22 19.5986 20.9816 19.8317 19.5944L21.4613 9.89864C21.6358 8.86005 21.2124 7.81176 20.3579 7.16725L14.3044 2.60094Z" stroke="#1A1A1A" stroke-width="2"/>
</svg>
