<svg width="13" height="14" viewBox="0 0 13 14" fill="none" xmlns="http://www.w3.org/2000/svg">
<path d="M6.03252 9.61157H7.09183V6.43364H6.03252V9.61157ZM6.56218 5.37433C6.71224 5.37433 6.83813 5.32349 6.93982 5.22179C7.04151 5.1201 7.09218 4.99439 7.09183 4.84468C7.09183 4.69461 7.04098 4.5689 6.93929 4.46756C6.8376 4.36622 6.71189 4.31538 6.56218 4.31502C6.41211 4.31502 6.2864 4.36587 6.18506 4.46756C6.08372 4.56926 6.03287 4.69496 6.03252 4.84468C6.03252 4.99475 6.08337 5.12063 6.18506 5.22232C6.28676 5.32402 6.41246 5.37469 6.56218 5.37433ZM6.56218 12.2598C5.82949 12.2598 5.14093 12.1207 4.49652 11.8425C3.85211 11.5642 3.29156 11.1869 2.81487 10.7106C2.33818 10.2339 1.96089 9.67337 1.68299 9.02895C1.4051 8.38454 1.26598 7.69599 1.26562 6.9633C1.26562 6.23061 1.40475 5.54206 1.68299 4.89764C1.96124 4.25323 2.33853 3.69268 2.81487 3.21599C3.29156 2.7393 3.85211 2.36201 4.49652 2.08412C5.14093 1.80622 5.82949 1.6671 6.56218 1.66675C7.29487 1.66675 7.98342 1.80587 8.62783 2.08412C9.27224 2.36236 9.8328 2.73965 10.3095 3.21599C10.7862 3.69268 11.1636 4.25323 11.4419 4.89764C11.7201 5.54206 11.8591 6.23061 11.8587 6.9633C11.8587 7.69599 11.7196 8.38454 11.4414 9.02895C11.1631 9.67337 10.7858 10.2339 10.3095 10.7106C9.8328 11.1873 9.27224 11.5648 8.62783 11.843C7.98342 12.1213 7.29487 12.2602 6.56218 12.2598ZM6.56218 11.2005C7.74507 11.2005 8.747 10.7901 9.56797 9.96909C10.3889 9.14813 10.7994 8.1462 10.7994 6.9633C10.7994 5.7804 10.3889 4.77847 9.56797 3.95751C8.747 3.13654 7.74507 2.72606 6.56218 2.72606C5.37928 2.72606 4.37735 3.13654 3.55638 3.95751C2.73542 4.77847 2.32494 5.7804 2.32494 6.9633C2.32494 8.1462 2.73542 9.14813 3.55638 9.96909C4.37735 10.7901 5.37928 11.2005 6.56218 11.2005Z" fill="#A6A6A6"/>
</svg>
