<svg width="25" height="24" viewBox="0 0 25 24" fill="none" xmlns="http://www.w3.org/2000/svg">
<path fill-rule="evenodd" clip-rule="evenodd" d="M12.375 21C17.8978 21 22.375 16.9706 22.375 12C22.375 7.02944 17.8978 3 12.375 3C6.85215 3 2.375 7.02944 2.375 12C2.375 13.6604 2.87458 15.2157 3.74584 16.551C3.82146 16.6669 3.84976 16.8079 3.8201 16.9431L3.14284 20.0288C3.05474 20.4302 3.46163 20.7606 3.8364 20.592L6.35365 19.4592C6.50735 19.3901 6.68507 19.4037 6.82954 19.4905C8.41654 20.4441 10.3236 21 12.375 21Z" fill="#1A1A1A"/>
<circle cx="9.75" cy="12.25" r="0.75" fill="white"/>
<circle cx="12.25" cy="12.25" r="0.75" fill="white"/>
<circle cx="14.75" cy="12.25" r="0.75" fill="white"/>
</svg>
