<svg width="16" height="16" viewBox="0 0 16 16" fill="none" xmlns="http://www.w3.org/2000/svg">
<rect width="16" height="16" fill="white"/>
<circle cx="10" cy="5.5" r="2" fill="#191919"/>
<path d="M14 10.9C14 11.7837 12.2091 12.5 10 12.5C7.79086 12.5 6 11.7837 6 10.9C6 9.5 7.79086 8.5 10 8.5C12.2091 8.5 14 9.5 14 10.9Z" fill="#191919"/>
<circle cx="6" cy="5.5" r="2.5" fill="#191919" stroke="white"/>
<path d="M6 13C7.1519 13 8.21777 12.8142 9.01412 12.4956C9.41091 12.3369 9.76557 12.1354 10.0292 11.8861C10.2939 11.6357 10.5 11.3027 10.5 10.9C10.5 9.96009 9.89535 9.22162 9.08158 8.74383C8.26495 8.26435 7.17295 8 6 8C4.82705 8 3.73505 8.26435 2.91842 8.74383C2.10465 9.22162 1.5 9.96009 1.5 10.9C1.5 11.3027 1.70609 11.6357 1.97079 11.8861C2.23443 12.1354 2.58909 12.3369 2.98588 12.4956C3.78223 12.8142 4.8481 13 6 13Z" fill="#191919" stroke="white"/>
</svg>
