<svg width="16" height="17" viewBox="0 0 16 17" fill="none" xmlns="http://www.w3.org/2000/svg">
<rect width="16" height="16" transform="translate(0 0.5)" fill="white"/>
<circle cx="10.3338" cy="6.16652" r="2.33333" fill="#BFBFBF"/>
<path d="M15.0006 11.854C15.0006 12.8205 12.9112 13.1665 10.3339 13.1665C7.75657 13.1665 5.66724 12.8205 5.66724 11.854C5.66724 10.8875 7.06724 9.6665 10.3339 9.6665C13.6006 9.6665 15.0006 10.8875 15.0006 11.854Z" fill="#BFBFBF"/>
<circle cx="5.66658" cy="6.16671" r="2.83333" fill="#BFBFBF" stroke="white"/>
<path d="M5.66667 13.6667C6.96824 13.6667 8.18248 13.5802 9.0857 13.3585C9.53415 13.2484 9.94614 13.0956 10.2569 12.8741C10.5778 12.6454 10.8333 12.3075 10.8333 11.8542C10.8333 11.1198 10.3129 10.4357 9.46991 9.96209C8.61461 9.48155 7.35613 9.16669 5.66667 9.16669C3.9772 9.16669 2.71872 9.48155 1.86342 9.96209C1.02039 10.4357 0.5 11.1198 0.5 11.8542C0.5 12.3075 0.755579 12.6454 1.07648 12.8741C1.38719 13.0956 1.79918 13.2484 2.24763 13.3585C3.15086 13.5802 4.3651 13.6667 5.66667 13.6667Z" fill="#BFBFBF" stroke="white"/>
</svg>
