<svg width="16" height="17" viewBox="0 0 16 17" fill="none" xmlns="http://www.w3.org/2000/svg">
<path fill-rule="evenodd" clip-rule="evenodd" d="M15.8788 3.18494C16.4503 1.59075 14.9097 0.0501595 13.3156 0.621661L1.32859 4.91887C-0.347937 5.51989 -0.466518 7.84557 1.14019 8.614L5.49113 10.6949C5.62879 10.7607 5.73977 10.8717 5.80561 11.0094L7.88649 15.3603C8.65492 16.967 10.9806 16.8484 11.5816 15.1719L15.8788 3.18494ZM14.5596 2.15525C14.5052 2.06886 14.4316 1.99527 14.3452 1.94088L14.5596 2.15525ZM13.6226 1.93114L1.77954 6.17678C1.2207 6.37712 1.18117 7.15234 1.71674 7.40848L6.06547 9.48831L13.6226 1.93114ZM7.01101 10.4326C7.01097 10.4325 7.01105 10.4327 7.01101 10.4326L9.09201 14.7837C9.34815 15.3193 10.1234 15.2798 10.3237 14.7209L14.5714 2.87221L7.01101 10.4326Z" fill="#191919"/>
</svg>
