<svg width="24" height="24" viewBox="0 0 24 24" fill="none" xmlns="http://www.w3.org/2000/svg">
<path d="M11.103 3.82001C11.4696 3.0761 12.5304 3.07611 12.897 3.82001L15.0122 8.11182C15.1577 8.40716 15.4393 8.61192 15.7652 8.65933L20.4971 9.34788C21.3169 9.46717 21.6445 10.4744 21.0517 11.0531L17.6258 14.3971C17.3905 14.6268 17.2831 14.9575 17.3387 15.2815L18.1471 20.002C18.2871 20.8191 17.4292 21.4419 16.6957 21.0557L12.4658 18.8288C12.1743 18.6753 11.8257 18.6753 11.5342 18.8288L7.30435 21.0557C6.5708 21.4419 5.7129 20.8191 5.85285 20.002L6.66135 15.2815C6.71685 14.9575 6.6095 14.6268 6.37421 14.3971L2.94834 11.0531C2.35552 10.4744 2.68306 9.46717 3.50285 9.34788L8.23485 8.65933C8.56067 8.61192 8.84228 8.40716 8.98783 8.11182L11.103 3.82001Z" stroke="#323232" stroke-width="1.5"/>
</svg>
