<svg width="17" height="16" viewBox="0 0 17 16" fill="none" xmlns="http://www.w3.org/2000/svg">
<path fill-rule="evenodd" clip-rule="evenodd" d="M9.90733 5.76895C9.89306 5.8329 9.87221 5.92318 9.84923 6.02157H11.9387C13.127 6.02157 14.0373 7.05196 13.8618 8.19826L13.3829 11.3264C13.2406 12.2554 12.4227 12.9429 11.4597 12.9429H5.52808L5.52808 7.28947C5.58552 7.12687 5.65976 6.9197 5.74341 6.69327C5.93551 6.17331 6.1856 5.52891 6.39847 5.09457C6.42913 5.03203 6.4621 4.96243 6.49745 4.8878C6.66909 4.52548 6.89701 4.04437 7.18929 3.67461C7.37216 3.44327 7.60913 3.21482 7.9173 3.07549C8.24006 2.92956 8.60376 2.8986 8.99027 3.00996C9.6333 3.19524 9.92367 3.69562 10.013 4.21206C10.0974 4.69956 10.0208 5.2607 9.90733 5.76895ZM4.52808 7.28968H3.62094C2.93755 7.28968 2.38354 7.83003 2.38354 8.49659V11.736C2.38354 12.4025 2.93755 12.9429 3.62094 12.9429H4.52808L4.52808 7.28968Z" fill="#493F07"/>
</svg>
