<svg width="25" height="24" viewBox="0 0 25 24" fill="none" xmlns="http://www.w3.org/2000/svg">
<mask id="path-1-outside-1_1689_863" maskUnits="userSpaceOnUse" x="1.5" y="2" width="22" height="20" fill="black">
<rect fill="white" x="1.5" y="2" width="22" height="20"/>
<path fill-rule="evenodd" clip-rule="evenodd" d="M12.5 20C17.4706 20 21.5 16.4183 21.5 12C21.5 7.58172 17.4706 4 12.5 4C7.52944 4 3.5 7.58172 3.5 12C3.5 13.4673 3.9444 14.8423 4.72008 16.0246C4.79681 16.1415 4.82577 16.2841 4.79542 16.4206L4.21515 19.0318C4.1261 19.4326 4.53119 19.7639 4.90631 19.5972L7.05899 18.6404C7.21135 18.5727 7.38691 18.5862 7.53053 18.6709C8.95454 19.5108 10.663 20 12.5 20Z"/>
</mask>
<path d="M7.53053 18.6709L6.51451 20.3936L7.53053 18.6709ZM4.90631 19.5972L4.09404 17.7696L4.90631 19.5972ZM4.72008 16.0246L6.39228 14.9274L4.72008 16.0246ZM19.5 12C19.5 15.0988 16.594 18 12.5 18V22C18.3472 22 23.5 17.7378 23.5 12H19.5ZM12.5 6C16.594 6 19.5 8.90124 19.5 12H23.5C23.5 6.26221 18.3472 2 12.5 2V6ZM5.5 12C5.5 8.90124 8.40604 6 12.5 6V2C6.65283 2 1.5 6.26221 1.5 12H5.5ZM6.39228 14.9274C5.81701 14.0506 5.5 13.0536 5.5 12H1.5C1.5 13.881 2.07179 15.634 3.04789 17.1217L6.39228 14.9274ZM6.16752 19.4657L6.7478 16.8545L2.84305 15.9867L2.26278 18.598L6.16752 19.4657ZM6.24672 16.8128L4.09404 17.7696L5.71859 21.4248L7.87127 20.4681L6.24672 16.8128ZM12.5 18C11.0187 18 9.66132 17.6057 8.54654 16.9482L6.51451 20.3936C8.24776 21.4159 10.3073 22 12.5 22V18ZM7.87127 20.4681C7.40447 20.6755 6.90009 20.621 6.51451 20.3936L8.54654 16.9482C7.87373 16.5514 7.01823 16.4699 6.24672 16.8128L7.87127 20.4681ZM2.26278 18.598C1.81752 20.6016 3.84298 22.2584 5.71859 21.4248L4.09404 17.7696C5.2194 17.2694 6.43468 18.2635 6.16752 19.4657L2.26278 18.598ZM3.04789 17.1217C2.84485 16.8123 2.74985 16.4061 2.84305 15.9867L6.7478 16.8545C6.90168 16.162 6.74878 15.4707 6.39228 14.9274L3.04789 17.1217Z" fill="#1A1A1A" mask="url(#path-1-outside-1_1689_863)"/>
<circle cx="9.5" cy="12" r="1" fill="#191919"/>
<circle cx="12.5" cy="12" r="1" fill="#191919"/>
<circle cx="15.5" cy="12" r="1" fill="#191919"/>
</svg>
