<svg width="21" height="22" viewBox="0 0 21 22" fill="none" xmlns="http://www.w3.org/2000/svg">
<path d="M5.8335 5.99951H10.8335" stroke="#1A1A1A" stroke-width="2" stroke-linecap="round"/>
<path d="M5.8335 9.29639H8.8335" stroke="#1A1A1A" stroke-width="2" stroke-linecap="round"/>
<path fill-rule="evenodd" clip-rule="evenodd" d="M3.18975 0.00537109C1.97472 0.00537109 0.989746 0.990343 0.989746 2.20537V15.8051C0.989746 17.0201 1.97472 18.0051 3.18975 18.0051H10.4896C10.425 17.6808 10.3911 17.3461 10.3911 17.0038C10.3911 16.6625 10.4248 16.3286 10.4891 16.0051H3.18975C3.07929 16.0051 2.98975 15.9156 2.98975 15.8051V2.20537C2.98975 2.09491 3.07929 2.00537 3.18975 2.00537H14.7891C14.8996 2.00537 14.9891 2.09491 14.9891 2.20537V11.7557C15.3142 11.6998 15.6489 11.6706 15.9909 11.6706C16.3316 11.6706 16.6652 11.6996 16.9891 11.7551V2.20537C16.9891 0.990345 16.0042 0.00537109 14.7891 0.00537109H3.18975Z" fill="#1A1A1A"/>
<path d="M18.2743 20.7742C18.6722 21.1572 19.3173 21.1572 19.7152 20.7742C20.113 20.3911 20.113 19.7701 19.7152 19.3871L18.2743 20.7742ZM16.1131 18.6935L18.2743 20.7742L19.7152 19.3871L17.5539 17.3065L16.1131 18.6935Z" fill="#1A1A1A"/>
<circle cx="14.1831" cy="15.541" r="4" stroke="#1A1A1A" stroke-width="2"/>
</svg>
