<svg width="22" height="20" viewBox="0 0 22 20" fill="none" xmlns="http://www.w3.org/2000/svg">
<path d="M10.103 1.82001C10.4696 1.0761 11.5304 1.07611 11.897 1.82001L14.0122 6.11182C14.1577 6.40716 14.4393 6.61192 14.7652 6.65933L19.4971 7.34788C20.3169 7.46717 20.6445 8.4744 20.0517 9.05306L16.6258 12.3971C16.3905 12.6268 16.2831 12.9575 16.3387 13.2815L17.1471 18.002C17.2871 18.8191 16.4292 19.4419 15.6957 19.0557L11.4658 16.8288C11.1743 16.6753 10.8257 16.6753 10.5342 16.8288L6.30435 19.0557C5.5708 19.4419 4.7129 18.8191 4.85285 18.002L5.66135 13.2815C5.71685 12.9575 5.6095 12.6268 5.37421 12.3971L1.94834 9.05306C1.35552 8.4744 1.68306 7.46717 2.50285 7.34788L7.23485 6.65933C7.56067 6.61192 7.84228 6.40716 7.98783 6.11182L10.103 1.82001Z" stroke="#323232" stroke-width="1.5"/>
</svg>
